<svg id="handshake" xmlns="http://www.w3.org/2000/svg" viewBox="0 0 512 512">
  <defs>
    <style>
      .cls-1 {
        fill: #ffffff;
      }

      .cls-2 {
        fill: #aa623e;
      }

      .cls-3 {
        fill: #753d21;
      }

      .cls-4 {
        fill: url(#Dégradé_sans_nom_3);
      }

      .cls-5 {
        fill: #9a4747;
      }

      .cls-6 {
        fill: #ffcaca;
      }
    </style>
    <linearGradient id="Dégradé_sans_nom_3" x1="8.02" y1="493.41" x2="10.08" y2="493.37" gradientTransform="matrix(16.84, -5.8, -7.48, -21.72, 3858.31, 11054.84)" gradientUnits="userSpaceOnUse">
      <stop offset="0" stop-color="#9a4747"/>
      <stop offset="1" stop-color="#272525"/>
    </linearGradient>
  </defs>
  <g id="Groupe_16">
    <ellipse id="Ellipse_18-2" class="cls-1" cx="255.52" cy="255.51" rx="182.99" ry="184.48" transform="translate(-5.05 505.87) rotate(-88.85)"/>
    <path id="Tracé_9" class="cls-2" d="M179.61,233.86,153.53,320,106.63,313A120.37,120.37,0,0,1,96.41,291a67.57,67.57,0,0,1-4.17-21.22c-1-10.33-1.1-7.53.13-20.1a129.94,129.94,0,0,1,5.27-30.31,62.58,62.58,0,0,1,9.53-19.81Z"/>
    <ellipse id="Ellipse_14" class="cls-3" cx="167.35" cy="277.37" rx="44.74" ry="11.05" transform="matrix(0.29, -0.96, 0.96, 0.29, -146.83, 356.32)"/>
    <path id="Tracé_10" class="cls-4" d="M280.83,271S307,258,320,253.5s7.6-3.76,7.6-3.76l22.3,64.76s-.32-4.5-13.37,0A369.55,369.55,0,0,1,298,323.75Z"/>
    <path id="Tracé_12" class="cls-5" d="M298.69,327.48l-60.75,18a2.2,2.2,0,0,1-2.68-1.61l-17.64-70.74a2.21,2.21,0,0,1,1.61-2.68l62.53-8.83c1.19-.28,15,.56,15.33,1.75l10.4,58.38C307.78,322.94,299.87,327.19,298.69,327.48Z"/>
    <g>
      <path class="cls-6" d="M170.57,244.61l0-.08S170.51,244.53,170.57,244.61Z"/>
      <path class="cls-6" d="M308.19,316.78s.81-3.78-6.14-10.39a309.21,309.21,0,0,0-25.54-20.22l-25.95-11.11,7.33-4.42a10.36,10.36,0,0,0-5.7-19.89s-36.2,10.48-36.7,10.74c-3.07-.81-26.42-10-33.37-12.41-9.81-3.37-11.38-4.25-11.55-4.47a173.51,173.51,0,0,0-18.35,65.47c.77.12,24.35,4.32,29.49,5.21.32,1.72,8.36,9.71,9.4,10.22l48.14,28.18c.62.3,31.81,6.08,44.81,3.55,6.34-1.68,2.46-8.53-1.6-9.69,15.54,4.45,15.15-6.05,13.82-8.75,1.62-.62,8.72-4.8,2.84-12.49,2.88,3.69,4.26,3.31,6.07,2.46C309,327,308.19,316.78,308.19,316.78ZM256,319.69l12,6.65L255.37,321Zm41.26,5.24L264.55,306.8l2.66-5.46c6.3,4.71,19.68,14.46,28.27,18.89a18.39,18.39,0,0,0,3.52,5.95A6.59,6.59,0,0,0,297.26,324.93Z"/>
    </g>
    <path class="cls-2" d="M413.47,249.67a129.94,129.94,0,0,0-5.27-30.31,62.58,62.58,0,0,0-9.53-19.81l-78.94,39.08c-5.69,2.05-4.22,23.55,3.34,48.29,7.62,24.92,18.52,43.67,24.36,41.88l51.78-15.89A120.46,120.46,0,0,0,409.43,291a67.45,67.45,0,0,0,4.17-21.21C414.61,259.44,414.7,262.25,413.47,249.67Z"/>
    <path class="cls-5" d="M290.91,260.15l-35.33-9.27a10.1,10.1,0,0,0-5.16.18,8.79,8.79,0,0,0-5,1.54L229,263.81c-4,2.75-5.17,4.48-2.41,8.51s8.37,6.25,12.41,3.49l11.9-4.57,27,15.44c5.21,1.37,18.35-8.52,19.8-14.05A10.07,10.07,0,0,0,290.91,260.15Z"/>
    <path id="Tracé_21" class="cls-5" d="M208.46,317.44c3,2.1,2.3,8.26-1.55,13.75a8.08,8.08,0,0,1-9.32,3.42s-5.39-5.53-1.54-11S205.47,315.34,208.46,317.44Z"/>
    <path id="Tracé_22" class="cls-5" d="M221.41,325.75c3,2.1,1.79,9-2.69,15.39a9.14,9.14,0,0,1-10.08,4.52,9.84,9.84,0,0,1-.78-12.12C212.35,327.14,218.42,323.66,221.41,325.75Z"/>
    <path id="Tracé_23" class="cls-5" d="M230.89,331.47c3,2.1,1.62,9.23-3.08,15.93s-10.35,4.88-10.35,4.88a10.11,10.11,0,0,1-.5-12.48C221.66,333.09,227.9,329.37,230.89,331.47Z"/>
    <path id="Tracé_24" class="cls-5" d="M239.38,342.69c3,2.1,2.9,7.41-.22,11.86a7.05,7.05,0,0,1-8.43,2.15s-5.55-5.3-2.43-9.75S236.39,340.6,239.38,342.69Z"/>
  </g>
</svg>
