<svg id="Calque_1" xmlns="http://www.w3.org/2000/svg" xmlns:xlink="http://www.w3.org/1999/xlink" viewBox="0 0 1920 1080" preserveAspectRatio="">
  <defs>
    <style>
      .cls-1 {
        fill: none;
      }

      .cls-2 {
        clip-path: url(#clip-path);
      }

      .cls-3 {
        fill: #ec4480;
      }

      .cls-4 {
        fill: #40f5ad;
      }

      .cls-5 {
        fill: #2f85d2;
      }

      .cls-6 {
        fill: #aba1f1;
      }
    </style>
    <clipPath id="clip-path">
      <path class="cls-1" d="M651,740.61V742H503.09v-1.42q10.87,0,15.23-8.16t4.35-31V514.68q0-11.41-2.72-19a22.13,22.13,0,0,0-8.43-11.42q-5.7-3.8-15.5-3.8-14.68,0-26.92,12.78A46.19,46.19,0,0,0,456,520.36q.86,10.57.86,23.69v157.4q0,22.83,5.44,31t19.58,8.16V742H339.38v-1.42q10.88,0,15.23-8.16t4.35-31V514.68a71.06,71.06,0,0,0-2.17-19Q354.6,488,350,484.22t-12.24-3.8A38.65,38.65,0,0,0,319,485.31a39.81,39.81,0,0,0-14.69,13.87,37.14,37.14,0,0,0-5.71,20.4V701.45q0,22.83,4.35,31t15.23,8.16V742H170.23v-1.42q16.86,0,23.66-8.16t6.8-31V508q0-24.46-6.53-36.17t-23.93-11.69v-.42L299,459.5l-.41,33.42q12.51-21.74,33.18-31.27t47.86-9.52q25,0,39.43,6.26t22,15.5q8,9.58,11.8,25.45Q467.4,472,490.31,462.2q23.67-10.06,53-10.07,25,0,39.43,6.26t22,15.5q8.16,9.8,12,26.11t3.8,44v157.4q0,22.83,6.8,31T651,740.61Zm17.4-280.86v.42q17.4,0,23.93,11.69T698.89,508V691.45c0,15.22-2.27,35.56-6.8,41s-12.43,8.16-23.66,8.16V742H827.25v-1.42q-16.87,0-23.66-8.16c-4.54-5.44-6.8-25.78-6.8-41l.21-232ZM744.5,330.5A59.5,59.5,0,1,0,804,390,59.5,59.5,0,0,0,744.5,330.5Zm400.93,129.25v1.42q17.4,0,23.93,11.69t6.53,36.17V701.45q0,22.83-6.8,31t-23.66,8.16V742h158.82v-1.42q-16.87,0-23.66-8.16t-6.8-31l.21-242ZM1221.5,330.5a59.5,59.5,0,0,0,0,119c32.86,0,59.5-24.64,59.5-57.5S1254.36,330.5,1221.5,330.5Zm-98.66,399.23q-7.33-9.24-12.23-16.32l-90.85-150.22,100.09-102.56v-.88H1001.07v.88c19.22,1.45,38.93,9.87,43.72,35.83,2.93,15.84-3.26,33.64-19.58,53.57l-7.71,9.41-48.85-80.78q-5.45-8.69-1.36-13.59t15-4.9v-.42H835.94v.42a26.39,26.39,0,0,1,14.41,8.43,137.47,137.47,0,0,1,13.87,18.76l86.1,142.39L841.38,741.15V742H976.47v-.88c-12.69-1.09-33.12-5.81-39.91-15.23C924,708.5,923.55,695.46,925,681.5s11-28.67,23-43.9l4.26-4.69,53.94,89.2q5.43,8.71,1.36,13.6t-15,4.9V742h146.31v-1.42Q1130.17,739,1122.84,729.73Zm219.79-334.16v64.18h-41.34v9.88h41.34V655.55q0,28.29,3.26,46a54.89,54.89,0,0,0,15.23,29.64q9.24,9.26,23.66,13.87a105.73,105.73,0,0,0,32.36,4.62q28.27,0,47-11.69a89,89,0,0,0,30.18-31.28L1502,693.5c-5,6-25.57,16.53-31,18.89s-10.16,3.53-14.14,3.53q-8.71,0-12.51-4.62t-3.81-15V469.63h53.3v-9.88h-53.3V371.64ZM1749,648.5l-2.26,8.68a160.76,160.76,0,0,1-20.94,43.24,117.71,117.71,0,0,1-37.26,35.35q-22.85,13.88-55.48,13.87-34.82,0-63.36-14.14t-45.42-46.77q-16.86-32.64-16.86-87.57,0-52.21,18.5-85.12t50.31-48.41q31.82-15.5,71-15.5,47.86,0,75.33,28c11,11.26,21.39,26.71,23.14,47.51C1749,567.5,1736,574,1718.39,574h-109q-.32,4.08-.31,8.15v11.42q0,38.09,9.52,59.29t23.93,29.37q14.4,8.16,29.1,8.16,10.88,0,29.37-5.71C1713.37,680.84,1737,665.18,1749,648.5ZM1619.47,487.76c-6.16,15.38-8.15,38.66-10,75.87h41c18.54,0,21.09-6.13,21.09-19.56,0-19.65-1.06-25.87-1.55-29.57-2-15-7-30-10.29-36.26-4.6-8.77-9.43-13.6-16.31-13.6Q1628.71,464.64,1619.47,487.76Z"/>
    </clipPath>
  </defs>
  <g class="cls-2">
    <g>
      <path class="cls-3" d="M1559.14,310.5a290.23,290.23,0,0,0-18.2,59.15c-26.47,134.38-192.7,268.68-292.66,311-56.51,23.94-114.59,42.59-164.33,85.82H1765v-456Z"/>
      <path class="cls-4" d="M617.66,310.5a290.28,290.28,0,0,0-17.88,58.4c-26.47,134.38-192.7,268.68-292.66,311C252.19,703.2,195.79,721.47,147,762.17v4.33H612.94C662.78,723,721,704.31,777.7,680.3c100-42.35,266.19-176.64,292.66-311a290.51,290.51,0,0,1,18-58.78Z"/>
      <path class="cls-5" d="M599.78,368.9a290.28,290.28,0,0,1,17.88-58.4H147V762.17c48.79-40.7,105.19-59,160.12-82.24C407.08,637.58,573.31,503.28,599.78,368.9Z"/>
      <path class="cls-6" d="M1088.4,310.5a290.51,290.51,0,0,0-18,58.78C1043.89,503.66,877.66,638,777.7,680.3c-56.68,24-114.92,42.7-164.76,86.2h471c49.74-43.23,107.82-61.88,164.33-85.82,100-42.35,266.19-176.65,292.66-311a290.23,290.23,0,0,1,18.2-59.15Z"/>
    </g>
  </g>
</svg>
